<?xml version="1.0" encoding="UTF-8" standalone="no" ?>
<!DOCTYPE svg PUBLIC "-//W3C//DTD SVG 1.1//EN" "http://www.w3.org/Graphics/SVG/1.1/DTD/svg11.dtd">
<svg xmlns="http://www.w3.org/2000/svg" xmlns:xlink="http://www.w3.org/1999/xlink" version="1.1" width="1080" height="1080" viewBox="0 0 1080 1080" xml:space="preserve">
<desc>Created with Fabric.js 5.2.4</desc>
<defs>
</defs>
<g transform="matrix(1 0 0 1 540 540)" id="8affc037-6e69-4bf2-9e6f-3e8d18db4599"  >
</g>
<g transform="matrix(1 0 0 1 540 540)" id="723206ee-d4bd-4f8c-8752-a947ee67d432"  >
<rect style="stroke: none; stroke-width: 1; stroke-dasharray: none; stroke-linecap: butt; stroke-dashoffset: 0; stroke-linejoin: miter; stroke-miterlimit: 4; fill: rgb(255,255,255); fill-rule: nonzero; opacity: 1; visibility: hidden;" vector-effect="non-scaling-stroke"  x="-540" y="-540" rx="0" ry="0" width="1080" height="1080" />
</g>
<g transform="matrix(0 0 0 0 0 0)"  >
<g style=""   >
</g>
</g>
<g transform="matrix(1 0 0 1 540 540)"  >
<g style="" vector-effect="non-scaling-stroke"   >
		<g transform="matrix(1 0 0 1 -1.5 0)"  >
<path style="stroke: none; stroke-width: 1; stroke-dasharray: none; stroke-linecap: butt; stroke-dashoffset: 0; stroke-linejoin: miter; stroke-miterlimit: 4; fill: rgb(60,171,202); fill-rule: nonzero; opacity: 1;" vector-effect="non-scaling-stroke"  transform=" translate(-10.5, -12)" d="M 5.46967 12.5303 C 5.17678 12.2374 5.17678 11.7626 5.46967 11.4697 L 7.46967 9.46967 C 7.76257 9.17678 8.23744 9.17678 8.53033 9.46967 C 8.82323 9.76256 8.82323 10.2374 8.53033 10.5303 L 7.81066 11.25 L 15 11.25 C 15.4142 11.25 15.75 11.5858 15.75 12 C 15.75 12.4142 15.4142 12.75 15 12.75 L 7.81066 12.75 L 8.53033 13.4697 C 8.82323 13.7626 8.82323 14.2374 8.53033 14.5303 C 8.23744 14.8232 7.76257 14.8232 7.46967 14.5303 L 5.46967 12.5303 Z" stroke-linecap="round" />
</g>
		<g transform="matrix(1 0 0 1 0 0)"  >
<path style="stroke: none; stroke-width: 1; stroke-dasharray: none; stroke-linecap: butt; stroke-dashoffset: 0; stroke-linejoin: miter; stroke-miterlimit: 4; fill: rgb(60,171,202); fill-rule: evenodd; opacity: 1;" vector-effect="non-scaling-stroke"  transform=" translate(-12, -12)" d="M 13.9453 1.25 L 15.0551 1.25 C 16.4227 1.24998 17.525 1.24996 18.392 1.36652 C 19.2921 1.48754 20.05 1.74643 20.6519 2.34835 C 21.2538 2.95027 21.5127 3.70814 21.6337 4.60825 C 21.7503 5.47522 21.7502 6.57754 21.7502 7.94513 L 21.7502 16.0549 C 21.7502 17.4225 21.7503 18.5248 21.6337 19.3918 C 21.5127 20.2919 21.2538 21.0497 20.6519 21.6517 C 20.05 22.2536 19.2921 22.5125 18.392 22.6335 C 17.525 22.75 16.4227 22.75 15.0551 22.75 L 13.9453 22.75 C 12.5778 22.75 11.4754 22.75 10.6085 22.6335 C 9.70836 22.5125 8.95048 22.2536 8.34857 21.6517 C 7.94963 21.2527 7.70068 20.7844 7.54305 20.2498 C 6.59168 20.2486 5.79906 20.2381 5.15689 20.1518 C 4.39294 20.0491 3.7306 19.8268 3.20191 19.2981 C 2.67321 18.7694 2.45093 18.1071 2.34822 17.3431 C 2.24996 16.6123 2.24998 15.6865 2.25 14.5537 L 2.25 9.44631 C 2.24998 8.31349 2.24996 7.38774 2.34822 6.65689 C 2.45093 5.89294 2.67321 5.2306 3.20191 4.7019 C 3.7306 4.17321 4.39294 3.95093 5.15689 3.84822 C 5.79906 3.76188 6.59168 3.75142 7.54305 3.75017 C 7.70068 3.21562 7.94963 2.74729 8.34857 2.34835 C 8.95048 1.74643 9.70836 1.48754 10.6085 1.36652 C 11.4754 1.24996 12.5778 1.24998 13.9453 1.25 Z M 7.25197 17.0042 C 7.25555 17.6487 7.2662 18.2293 7.30285 18.7491 C 6.46836 18.7459 5.848 18.7312 5.35676 18.6652 C 4.75914 18.5848 4.46611 18.441 4.26257 18.2374 C 4.05903 18.0339 3.91519 17.7409 3.83484 17.1432 C 3.7516 16.5241 3.75 15.6997 3.75 14.5 L 3.75 9.5 C 3.75 8.30029 3.7516 7.47595 3.83484 6.85676 C 3.91519 6.25914 4.05903 5.9661 4.26257 5.76256 C 4.46611 5.55902 4.75914 5.41519 5.35676 5.33484 C 5.848 5.2688 6.46836 5.25415 7.30285 5.25091 C 7.2662 5.77073 7.25555 6.35129 7.25197 6.99583 C 7.24966 7.41003 7.58357 7.74768 7.99778 7.74999 C 8.41199 7.7523 8.74964 7.41838 8.75194 7.00418 C 8.75803 5.91068 8.78643 5.1356 8.89448 4.54735 C 8.9986 3.98054 9.16577 3.65246 9.40923 3.40901 C 9.68599 3.13225 10.0746 2.9518 10.8083 2.85315 C 11.5637 2.75159 12.5648 2.75 14.0002 2.75 L 15.0002 2.75 C 16.4356 2.75 17.4367 2.75159 18.1921 2.85315 C 18.9259 2.9518 19.3144 3.13225 19.5912 3.40901 C 19.868 3.68577 20.0484 4.07435 20.1471 4.80812 C 20.2486 5.56347 20.2502 6.56459 20.2502 8 L 20.2502 16 C 20.2502 17.4354 20.2486 18.4365 20.1471 19.1919 C 20.0484 19.9257 19.868 20.3142 19.5912 20.591 C 19.3144 20.8678 18.9259 21.0482 18.1921 21.1469 C 17.4367 21.2484 16.4356 21.25 15.0002 21.25 L 14.0002 21.25 C 12.5648 21.25 11.5637 21.2484 10.8083 21.1469 C 10.0746 21.0482 9.68599 20.8678 9.40923 20.591 C 9.16577 20.3475 8.9986 20.0195 8.89448 19.4527 C 8.78643 18.8644 8.75803 18.0893 8.75194 16.9958 C 8.74964 16.5816 8.41199 16.2477 7.99778 16.25 C 7.58357 16.2523 7.24966 16.59 7.25197 17.0042 Z" stroke-linecap="round" />
</g>
</g>
</g>
</svg>